<?xml version="1.0" encoding="UTF-8"?>
<svg id="Layer_1" data-name="Layer 1" xmlns="http://www.w3.org/2000/svg" viewBox="0 0 337.88 266.92">
  <defs>
    <style>
      .cls-1 {
        fill: #000;
        stroke-width: 0px;
      }
    </style>
  </defs>
  <path class="cls-1" d="M337.18,55.63c-8.05-1.64-16.1-3.18-24.25-4.18-11.17-1.37-22.35-1.56-33.59-1.28-7.6.19-15.23.63-22.75,1.77,3.11-2.71,6.58-5,10.15-7.07,4.61-2.67,9.4-5.05,14.27-7.22,11.04-4.91,22.63-7.88,34.66-8.97.88-.08,1.41-1.32.49-1.8-6.78-3.54-14.44-5.48-21.89-6.99-10.62-2.15-21.48-3.21-32.32-3.3-12.27-.11-24.61,1.04-36.58,3.8-3.54.81-7.04,1.79-10.5,2.91,5.2-3.73,10.53-7.29,16.09-10.47,7.28-4.16,14.91-7.64,22.89-10.23,1.08-.35.81-1.78-.26-1.9-13.5-1.48-27.19-.58-40.47,2.15-13.66,2.81-26.92,7.58-39.35,13.89-12.35,6.27-23.92,14.12-34.22,23.39-.46.41-.9.84-1.35,1.26-.08-.32-.15-.64-.23-.96-.13-.53-.09-.69-.05-1.26.19-2.48.74-4.92,1.51-7.28,1.67-5.14,4.39-9.97,7.73-14.21,1.64-2.08,3.44-4.02,5.4-5.81.59-.54.15-1.72-.68-1.65-2.02.17-4.04.6-6,1.08-5,1.21-9.85,3.03-14.47,5.28-6.68,3.26-12.87,7.51-18.37,12.5-7.21,6.54-13.19,14.38-17.91,22.88-5.79,10.43-9.7,21.83-12.27,33.46,0,0,0,0,0,0l-1.97,1.88h.06c-8.85,9.32-12.67,22.47-14.52,34.95-1.21,1.36-1.99,3.03-2.01,5.01,0,.27,0,.54.02.82,0,.05.02.09.03.14-.27.1-.53.22-.79.34-1.01.48-1.8,1.12-2.43,1.88-.04.05-.09.1-.13.15-.19.24-.36.49-.52.74-.05.08-.11.15-.16.23-1.48,2.6-1.5,5.79-1.42,8.69,0,.1.03.19.06.28-.09.13-.18.26-.27.39-.27.37-.5.76-.74,1.16-.05.09-.11.19-.16.28-.11.2-.24.38-.35.59-1.38,2.77-1.97,5.82-2.27,8.88,0,.05,0,.11-.01.16-.07.73-.12,1.46-.15,2.2,0,.1,0,.19-.01.29-.03.59-.05,1.18-.06,1.77-.04,1.45-.18,3.02.34,4.41.08.21.18.4.28.58.03.08.07.17.14.25.04.05.07.08.11.13.59.8,1.46,1.34,2.4,1.75.05.02.08.03.12.05.34.15.7.28,1.07.41.42.15.85.29,1.28.42-2.31,7.15-4.38,14.74-2.67,22.18.5,2.16,1.34,4.16,2.26,6.16.36.79.54,1.78,1.07,2.46-4.26,1.62-8.62,2.99-13.07,4.05-8.29,1.98-16.8,2.89-25.31,2.79-2.14-3.68-6.12-6.16-10.69-6.16-6.83,0-12.38,5.54-12.38,12.37s5.54,12.38,12.38,12.38c1.31,0,2.57-.21,3.76-.59,9.79,6.68,21.22,10.25,32.42,13.78,6.33,1.99,12.67,3.88,19.19,5.15,3.26.63,6.52,1.23,9.82,1.61.2.02.4.03.6.05,2.33,3.88,5.23,7.42,8.59,10.46,9.1,8.21,21.01,12.47,32.94,14.42,13.41,2.19,27.16,1.79,40.61.17,13.21-1.59,26.28-4.38,39.04-8.1,5.36-1.56,10.67-3.3,15.9-5.26,4.48-1.68,8.96-3.41,13.07-5.88,6.18-3.72,12.23-7.83,17.92-12.27,4.02-3.14,7.3-7.1,10-11.44,1.34-.91,2.68-1.82,4-2.77,3.18-2.29,6.28-4.69,9.29-7.19,12.1-10.05,22.74-21.83,31.62-34.81,8.88-12.98,15.97-27.19,20.92-42.11,1.21-3.64,2.28-7.32,3.23-11.04.22-.87-.98-1.73-1.62-.94-3.84,4.74-8.6,8.58-13.56,12.07-5.19,3.65-10.5,7.15-15.85,10.55-5.41,3.44-10.95,6.68-16.78,9.37-.14.06-.28.12-.42.19,1.76-7.65,3.68-15.27,5.83-22.82,2.7-9.46,5.77-18.85,9.66-27.89,3.15-7.31,6.85-14.43,11.43-20.96,3.94-5.61,8.57-10.72,13.85-15.09,5.21-4.31,11.04-7.83,17.15-10.7.8-.37,1.6-.74,2.4-1.09.76-.33.55-1.61-.23-1.77Z"/>
</svg>